HIERARCHY
ROOT Hips
{
  OFFSET 1.44925e-005 102.336 -0.101585
  CHANNELS 6 Xposition Yposition Zposition Zrotation Xrotation Yrotation
  JOINT LeftUpLeg
  {
    OFFSET 8.9458 -8.66707 0.101652
    CHANNELS 3 Zrotation Xrotation Yrotation
    JOINT LeftLeg
    {
      OFFSET 0 -44.4227 1.3727
      CHANNELS 3 Zrotation Xrotation Yrotation
      JOINT LeftFoot
      {
        OFFSET -0.253549 -42.0924 -1.46059
        CHANNELS 3 Zrotation Xrotation Yrotation
        JOINT LeftToes
        {
          OFFSET -0.04 -4.41509 8.4991
          CHANNELS 3 Zrotation Xrotation Yrotation
          End Site
          {
            OFFSET 0.08 -0.047448 9.77979
          }
        }
      }
    }
  }
  JOINT Spine
  {
    OFFSET 0 11.8905 0
    CHANNELS 3 Zrotation Xrotation Yrotation
    JOINT Spine1
    {
      OFFSET 0 25.6574 0.127663
      CHANNELS 3 Zrotation Xrotation Yrotation
      JOINT RightShoulder
      {
        OFFSET -8.99 -0.362252 -0.22
        CHANNELS 3 Zrotation Xrotation Yrotation
        JOINT RightArm
        {
          OFFSET -10.2827 -0.00338 0.322123
          CHANNELS 3 Zrotation Xrotation Yrotation
          JOINT RightForeArm
          {
            OFFSET -26.364 0.099144 -1.42434
            CHANNELS 3 Zrotation Xrotation Yrotation
            JOINT RightHand
            {
              OFFSET -22.0324 0.085362 1.02216
              CHANNELS 3 Zrotation Xrotation Yrotation
              End Site
              {
                OFFSET -13.3284 -0.6 1.50291
              }
            }
          }
        }
      }
      JOINT LeftShoulder1
      {
        OFFSET 8.99 -0.362252 -0.22
        CHANNELS 3 Zrotation Xrotation Yrotation
        JOINT LeftArm
        {
          OFFSET 10.2827 -0.00337999 0.322123
          CHANNELS 3 Zrotation Xrotation Yrotation
          JOINT LeftForeArm
          {
            OFFSET 26.2597 0.099144 -1.42434
            CHANNELS 3 Zrotation Xrotation Yrotation
            JOINT LeftHand
            {
              OFFSET 22.0902 0.085362 1.02216
              CHANNELS 3 Zrotation Xrotation Yrotation
              End Site
              {
                OFFSET 13.419 -0.6 1.50291
              }
            }
          }
        }
      }
      JOINT Head
      {
        OFFSET 0 8.73416 0.011341
        CHANNELS 3 Zrotation Xrotation Yrotation
        End Site
        {
          OFFSET -0.29 12.7742 2.51395
        }
      }
    }
  }
  JOINT RightUpLeg
  {
    OFFSET -8.9458 -8.66707 0.101652
    CHANNELS 3 Zrotation Xrotation Yrotation
    JOINT RightLeg
    {
      OFFSET 0 -44.4227 1.3727
      CHANNELS 3 Zrotation Xrotation Yrotation
      JOINT RightFoot
      {
        OFFSET 0.253549 -42.0924 -1.46059
        CHANNELS 3 Zrotation Xrotation Yrotation
        JOINT RightToes
        {
          OFFSET 0.04 -4.41509 8.4991
          CHANNELS 3 Zrotation Xrotation Yrotation
          End Site
          {
            OFFSET -0.08 -0.137448 9.77979
          }
        }
      }
    }
  }
}
MOTION
Frames:	7
Frame Time:	0.0333333
41.0077 103.846 7.0658 -4.59769 -1.04932 -87.8646 -2.17565 12.1205 7.94005 1.19842 27.0946 21.3995 -4.91564 -4.69857 0.146031 -1.36199e-009 8.75215e-006 -1.46445e-008 -2.34998 11.1625 -5.17055 5.85678 0.144207 -6.45496 36.1483 1.89619 0.467422 32.7874 -1.33884 -46.5302 4.33164 20.8145 45.4977 -15.767 8.94596 1.94114 -33.3978 2.44751 -2.69604 -41.3037 -12.9835 -31.5657 20.0137 24.8349 -87.3239 5.82328 9.61819 -0.917488 1.29848 -15.8198 2.39419 -0.808851 -21.6732 -5.60594 -1.12835 34.962 -17.1852 10.8853 -22.9111 1.2261 0.0462048 0.000530889 0.662642 
36.7868 103.481 6.61289 -5.27127 -1.27971 -87.6366 -1.20468 12.1906 8.94882 1.38889 33.3124 25.4336 -5.96646 -5.90246 0.108086 -1.36199e-009 8.75215e-006 -1.46445e-008 -2.13291 11.4776 -5.38323 6.44742 0.626984 -6.7048 36.1413 1.89489 0.461143 31.5594 -3.88362 -47.9848 5.01697 20.2983 45.7738 -16.0504 8.93451 1.88855 -32.8491 2.37997 -2.61057 -42.183 -12.8712 -33.3983 19.4986 24.5116 -88.0603 5.82328 9.61819 -0.917488 1.07237 -15.8028 2.73946 -0.860248 -17.5 -6.52503 -0.906402 27.1642 -17.0146 11.3579 -24.3329 1.43359 0.0462048 0.000530889 0.662642 
32.7657 101.95 6.02198 -5.79273 -1.45002 -87.4159 0.0146329 11.35 9.32777 1.57397 41.1181 27.7162 -7.32598 -8.66375 -0.0262766 -1.36199e-009 8.75215e-006 -1.46445e-008 -2.52282 11.7721 -5.54462 7.68862 1.37818 -6.99421 36.4559 1.89294 0.431981 30.948 -4.92837 -46.4443 4.82909 20.3645 44.9664 -15.8896 8.91887 2.09079 -33.2328 2.42384 -2.66157 -42.7326 -13.6312 -33.8126 19.4881 24.5205 -88.0382 5.82328 9.61819 -0.917488 0.924055 -15.9855 3.05488 -0.823315 -14.9457 -6.39263 -0.530801 24.1358 -18.0487 11.9592 -25.1113 1.6044 0.0462048 0.000530889 0.662642 
28.9642 99.5125 5.49662 -5.55869 -1.27044 -88.7812 2.00674 9.30599 9.41809 1.81366 49.1761 27.3902 -7.30762 -11.8983 -0.215115 -1.36199e-009 8.75215e-006 -1.46445e-008 -0.978206 12.0131 -5.52028 8.01589 1.14014 -6.6444 36.6377 1.88813 0.403178 30.3701 -6.06312 -43.8555 4.20131 20.857 44.709 -15.3576 8.93232 2.25771 -34.8302 2.6145 -2.88195 -42.2083 -14.8193 -32.623 19.6896 24.7279 -87.51 5.82328 9.61819 -0.917488 0.535334 -15.7454 3.00942 0.382134 -15.8573 -6.52539 -0.633302 27.4758 -18.006 10.4186 -23.9242 1.26089 0.0462048 0.000530889 0.662642 
25.4645 96.5324 5.13801 -5.31444 1.77541 -89.5125 4.95114 6.78497 9.08043 2.16304 57.331 26.0311 -7.11161 -15.2832 -0.407806 -1.36199e-009 8.75215e-006 -1.46445e-008 3.08045 13.5024 -5.15215 7.41563 -0.148528 -5.51227 36.6461 1.86614 0.35096 29.8148 -7.54793 -39.5784 4.88725 20.305 44.8671 -15.7952 8.95512 1.86413 -37.6548 2.93022 -3.17825 -40.6459 -16.3818 -30.3068 19.7212 25.1483 -86.3024 5.82328 9.61819 -0.917488 -0.192762 -16.1964 3.01772 3.46742 -19.241 -6.15632 -1.18646 36.1552 -16.9698 6.38271 -22.3693 0.571529 0.0462048 0.000530889 0.662642 
22.2202 93.3571 4.79159 -5.80601 4.2493 -93.0648 7.66325 4.51399 7.58355 2.74073 65.5049 24.4663 -7.9696 -18.2973 -0.663576 -1.36199e-009 8.75215e-006 -1.46445e-008 6.52432 16.2192 -4.71193 7.53812 -0.422926 -4.50479 37.2993 1.83395 0.21754 29.4392 -8.16558 -30.5363 6.52018 18.8246 43.937 -17.6059 8.93592 1.19064 -40.8674 3.27763 -3.43526 -38.8077 -18.5399 -27.2017 20.3199 26.1336 -83.8678 5.82328 9.61819 -0.917488 -0.610913 -18.749 3.98097 7.55808 -22.0776 -3.82219 -1.3651 46.3105 -17.3336 2.58897 -23.7335 0.0881406 0.0462048 0.000530889 0.662642 
19.1107 90.5915 4.37252 -6.69161 6.303 -94.8433 8.77327 1.79581 4.62477 3.74258 72.8542 22.3056 -8.83711 -20.3814 -0.899692 -1.36199e-009 8.75215e-006 -1.46445e-008 7.47108 18.4055 -4.56789 8.78191 1.29512 -4.29106 39.0418 1.81504 0.0261485 29.1018 -8.12367 -16.5954 6.74276 18.2655 41.7948 -18.9551 8.9203 0.785857 -43.4396 3.56722 -3.62936 -36.9304 -20.7385 -22.8007 20.8022 28.0932 -78.9296 5.82328 9.61819 -0.917488 -0.0254752 -22.2923 5.92108 10.8007 -22.8982 -1.60036 -1.66696 54.3946 -18.2631 1.57828 -28.2627 -0.00671436 0.0462048 0.000530889 0.662642 
